<svg xmlns="http://www.w3.org/2000/svg" viewBox="0 0 1000 230" role="img" aria-label="Vensis Fan Elektrik Ex-Proof"><defs><linearGradient id="g" x1="0" y1="0" x2="0" y2="1"><stop stop-color="#0da75e"/><stop offset="1" stop-color="#056b3d"/></linearGradient><filter id="s"><feDropShadow dx="0" dy="2" stdDeviation="2" flood-color="#003b22" flood-opacity=".55"/></filter></defs><g fill="url(#g)" stroke="#41c887" stroke-width="2" filter="url(#s)"><path d="M10 16h100l120 180h-99z"/><path d="M112 16h51v113l-51-75z"/><path d="M188 16h126v39H234v42h80v38h-80v45h80v39H188z"/><path d="M338 16h55l112 137V16h49v183h-56L387 63v136h-49z"/><path d="M579 16h129v39h-80v42h80v38h-80v45h80v39H579z"/><rect x="734" y="16" width="49" height="183"/><path d="M812 16h166v39H861v42h117v38H861v45h117v39H812z"/></g><g fill="#777" font-family="Arial,Helvetica,sans-serif" font-size="30" letter-spacing="8"><text x="165" y="226">FAN | ELEKTRİK | EX-PROOF</text></g><g stroke="#777" stroke-width="3"><line x1="18" y1="215" x2="145" y2="215"/><line x1="842" y1="215" x2="980" y2="215"/></g></svg>