<svg xmlns="http://www.w3.org/2000/svg" width="600" height="400" viewBox="0 0 600 400" role="img" aria-label="ELICENT"><defs><linearGradient id="b" x1="0" y1="0" x2="1" y2="1"><stop stop-color="#edf8fc"/><stop offset="1" stop-color="#69acce"/></linearGradient><linearGradient id="w"><stop stop-color="#fff"/><stop offset="1" stop-color="#d0dce1"/></linearGradient><filter id="s" x="-30%" y="-30%" width="160%" height="160%"><feDropShadow dy="16" stdDeviation="13" flood-color="#123a50" flood-opacity=".3"/></filter></defs><rect width="600" height="400" rx="28" fill="url(#b)"/><circle cx="495" cy="95" r="175" fill="#fff" opacity=".32"/><path d="M-20 342C140 280 305 390 620 310" fill="none" stroke="#fff" stroke-width="4" opacity=".7"/><text x="38" y="58" font-family="Arial" font-size="34" font-weight="800" fill="#057cb7">ELICENT</text><text x="40" y="82" font-family="Arial" font-size="12" font-weight="700" letter-spacing="2" fill="#39758f">KOMPAKT HAVALANDIRMA</text><g filter="url(#s)"><g transform="translate(140 238)"><rect x="-64" y="-47" width="128" height="94" rx="44" fill="url(#w)"/><circle r="38" fill="#164e69"/><g fill="#d6424d"><path d="M0-33C19-30 29-18 24-4L4 0Z"/><path d="M29-17C36 3 28 18 13 20L3 3Z"/><path d="M29 17C13 32-5 34-13 20L-2 3Z"/><path d="M0 33C-19 30-29 18-24 4L-4 0Z"/><path d="M-29 17C-36-3-28-18-13-20L-3-3Z"/><path d="M-29-17C-13-32 5-34 13-20L2-3Z"/></g><circle r="8" fill="#c4d6dc"/></g><g transform="translate(302 230)"><rect x="-67" y="-67" width="134" height="134" rx="20" fill="url(#w)"/><circle r="45" fill="#e8f2f6" stroke="#078ac4" stroke-width="6"/><g fill="#176786"><path d="M0-37C21-34 32-20 26-5L4 0Z"/><path d="M32-18C40 4 30 20 14 22L3 4Z"/><path d="M32 18C14 35-5 37-14 22L-3 4Z"/><path d="M0 37C-21 34-32 20-26 5L-4 0Z"/><path d="M-32 18C-40-4-30-20-14-22L-3-4Z"/><path d="M-32-18C-14-35 5-37 14-22L3-4Z"/></g><circle r="9" fill="#a8c7d2"/></g><g transform="translate(468 230)"><rect x="-68" y="-63" width="136" height="126" rx="22" fill="url(#w)"/><path d="M-41-33h82M-41-17h82M-41-1h82M-41 15h82M-41 31h82" stroke="#078ac4" stroke-width="6" stroke-linecap="round" opacity=".72"/></g></g><rect x="1" y="1" width="598" height="398" rx="27" fill="none" stroke="#fff" stroke-opacity=".55"/></svg>