<svg xmlns="http://www.w3.org/2000/svg" width="600" height="400" viewBox="0 0 600 400" role="img" aria-label="EXPROOF ELEKTRİK"><defs><linearGradient id="b" x1="0" y1="0" x2="1" y2="1"><stop stop-color="#12191d"/><stop offset="1" stop-color="#514528"/></linearGradient><filter id="s" x="-30%" y="-30%" width="160%" height="160%"><feDropShadow dy="18" stdDeviation="14" flood-color="#000" flood-opacity=".55"/></filter></defs><rect width="600" height="400" rx="28" fill="url(#b)"/><circle cx="480" cy="100" r="180" fill="#f3bd00" opacity=".1"/><path d="M-20 345C150 280 305 392 620 312" fill="none" stroke="#f3bd00" stroke-width="5" opacity=".42"/><text x="38" y="58" font-family="Arial" font-size="32" font-weight="800" fill="#fff">EXPROOF ELEKTRİK</text><text x="40" y="82" font-family="Arial" font-size="12" font-weight="700" letter-spacing="2" fill="#f5ca45">ATEX ELEKTRİK EKİPMANLARI</text><g filter="url(#s)"><g transform="translate(135 235)"><rect x="-60" y="-70" width="120" height="140" rx="15" fill="#596970" stroke="#a9b8bd" stroke-width="4"/><circle cx="-25" cy="-25" r="13" fill="#f4bd00"/><circle cx="20" cy="-25" r="13" fill="#d64235"/><rect x="-35" y="12" width="70" height="34" rx="7" fill="#1b2c33"/><path d="M-23 57h46" stroke="#e7edef" stroke-width="7"/></g><g transform="translate(300 235)"><rect x="-72" y="-82" width="144" height="164" rx="18" fill="#46565d" stroke="#a8b8be" stroke-width="4"/><rect x="-48" y="-55" width="96" height="46" rx="8" fill="#14282f"/><circle cx="-35" cy="25" r="11" fill="#f4bd00"/><circle cx="0" cy="25" r="11" fill="#f4bd00"/><circle cx="35" cy="25" r="11" fill="#f4bd00"/><path d="M-42 60h84" stroke="#cbd8dc" stroke-width="8"/></g><g transform="translate(470 225)"><rect x="-46" y="-70" width="92" height="140" rx="40" fill="#788990"/><ellipse cy="18" rx="55" ry="40" fill="#f6c53c" opacity=".92"/><ellipse cy="18" rx="38" ry="27" fill="#fff4c4"/><rect x="-12" y="-95" width="24" height="35" rx="6" fill="#9aa9ae"/></g></g><rect x="1" y="1" width="598" height="398" rx="27" fill="none" stroke="#fff" stroke-opacity=".13"/></svg>