<svg xmlns="http://www.w3.org/2000/svg" width="600" height="400" viewBox="0 0 600 400" role="img" aria-label="EXPROOF FAN"><defs><linearGradient id="b" x1="0" y1="0" x2="1" y2="1"><stop stop-color="#11171b"/><stop offset="1" stop-color="#514326"/></linearGradient><linearGradient id="m"><stop stop-color="#e9eff1"/><stop offset=".4" stop-color="#66747a"/><stop offset=".7" stop-color="#c8d2d6"/><stop offset="1" stop-color="#354149"/></linearGradient><filter id="s" x="-30%" y="-30%" width="160%" height="160%"><feDropShadow dy="18" stdDeviation="14" flood-color="#000" flood-opacity=".55"/></filter></defs><rect width="600" height="400" rx="28" fill="url(#b)"/><circle cx="480" cy="105" r="180" fill="#f5b800" opacity=".1"/><path d="M-20 344C150 285 310 390 620 310" fill="none" stroke="#f5b800" stroke-width="5" opacity=".42"/><text x="38" y="58" font-family="Arial" font-size="34" font-weight="800" fill="#fff">EXPROOF FAN</text><text x="40" y="82" font-family="Arial" font-size="12" font-weight="700" letter-spacing="2" fill="#f5ca45">PATLAYICI ORTAM FANLARI</text><g filter="url(#s)"><g transform="translate(145 240) scale(.82)"><rect x="-46" y="-56" width="92" height="112" rx="12" fill="#303b40"/><ellipse rx="72" ry="59" fill="url(#m)" stroke="#e4ebed" stroke-width="3"/><ellipse rx="56" ry="47" fill="#111c21" stroke="#9aa9ae" stroke-width="4"/><path d="M0-49C27-45 42-29 35-11L5 0ZM43-25C54 3 40 24 17 26L4 4ZM43 25C22 47-4 51-17 27L-4 4ZM0 49C-27 45-42 29-35 11L-5 0ZM-43 25C-54-3-40-24-17-26L-4-4ZM-43-25C-22-47 4-51 17-27L4-4Z" fill="#26353a"/><circle r="10" fill="#c5d0d4"/></g><g transform="translate(302 230)"><rect x="-58" y="-72" width="116" height="144" rx="15" fill="#303b40"/><ellipse rx="94" ry="77" fill="url(#m)" stroke="#e4ebed" stroke-width="3"/><ellipse rx="73" ry="61" fill="#111c21" stroke="#9aa9ae" stroke-width="4"/><path d="M0-58C32-53 50-34 42-13L6 0ZM51-29C64 4 47 28 20 31L5 5ZM51 29C25 55-5 60-20 32L-5 5ZM0 58C-32 53-50 34-42 13L-6 0ZM-51 29C-64-4-47-28-20-31L-5-5ZM-51-29C-25-55 5-60 20-32L5-5Z" fill="#26353a"/><circle r="12" fill="#c5d0d4"/></g><g transform="translate(470 245) scale(.78)"><rect x="-43" y="-52" width="86" height="104" rx="12" fill="#303b40"/><ellipse rx="68" ry="56" fill="url(#m)" stroke="#e4ebed" stroke-width="3"/><ellipse rx="53" ry="44" fill="#111c21" stroke="#9aa9ae" stroke-width="4"/><path d="M0-46C25-42 39-27 33-10L5 0ZM40-23C50 3 37 22 16 24L4 4ZM40 23C20 43-4 47-16 25L-4 4ZM0 46C-25 42-39 27-33 10L-5 0ZM-40 23C-50-3-37-22-16-24L-4-4ZM-40-23C-20-43 4-47 16-25L4-4Z" fill="#26353a"/><circle r="9" fill="#c5d0d4"/></g></g><rect x="256" y="326" width="96" height="30" rx="15" fill="#f5b800"/><text x="304" y="347" text-anchor="middle" font-family="Arial" font-weight="800" font-size="14" fill="#141a1d">ATEX / EX</text><rect x="1" y="1" width="598" height="398" rx="27" fill="none" stroke="#fff" stroke-opacity=".13"/></svg>