<svg xmlns="http://www.w3.org/2000/svg" width="600" height="400" viewBox="0 0 600 400" role="img" aria-label="VENSIS ELEKTRİK"><defs><linearGradient id="b" x1="0" y1="0" x2="1" y2="1"><stop stop-color="#061d16"/><stop offset="1" stop-color="#176342"/></linearGradient><filter id="s" x="-30%" y="-30%" width="160%" height="160%"><feDropShadow dy="18" stdDeviation="14" flood-color="#00100b" flood-opacity=".48"/></filter></defs><rect width="600" height="400" rx="28" fill="url(#b)"/><circle cx="475" cy="95" r="180" fill="#25ca7a" opacity=".16"/><path d="M-20 345C145 282 305 390 620 312" fill="none" stroke="#52e69b" stroke-width="5" opacity=".42"/><text x="38" y="58" font-family="Arial" font-size="32" font-weight="800" fill="#fff">VENSIS ELEKTRİK</text><text x="40" y="82" font-family="Arial" font-size="12" font-weight="700" letter-spacing="2" fill="#90e8bd">ENDÜSTRİYEL ELEKTRİK ÇÖZÜMLERİ</text><g filter="url(#s)"><g transform="translate(130 235)"><rect x="-58" y="-74" width="116" height="148" rx="14" fill="#e7eeec" stroke="#7d918b" stroke-width="4"/><rect x="-38" y="-48" width="76" height="42" rx="6" fill="#0a6d45"/><rect x="-36" y="18" width="20" height="34" rx="4" fill="#1a3330"/><rect x="-8" y="18" width="20" height="34" rx="4" fill="#1a3330"/><rect x="20" y="18" width="20" height="34" rx="4" fill="#1a3330"/></g><g transform="translate(300 235)"><rect x="-72" y="-82" width="144" height="164" rx="18" fill="#dce6e2" stroke="#709086" stroke-width="4"/><rect x="-48" y="-55" width="96" height="48" rx="8" fill="#063a2b"/><circle cx="-30" cy="28" r="12" fill="#00a662"/><circle cx="8" cy="28" r="12" fill="#f0b800"/><circle cx="42" cy="28" r="12" fill="#d54438"/><path d="M-45 62h90" stroke="#506b63" stroke-width="8"/></g><g transform="translate(470 224)"><rect x="-18" y="-92" width="36" height="52" rx="8" fill="#58756b"/><path d="M-65-34h130l-18 86h-94z" fill="#dce8e3" stroke="#739188" stroke-width="4"/><ellipse cy="21" rx="48" ry="28" fill="#8af1bd" opacity=".9"/><ellipse cy="21" rx="31" ry="17" fill="#e7fff1"/></g></g><rect x="1" y="1" width="598" height="398" rx="27" fill="none" stroke="#fff" stroke-opacity=".13"/></svg>