<svg xmlns="http://www.w3.org/2000/svg" width="600" height="400" viewBox="0 0 600 400" role="img" aria-label="VITLO">
<defs>
  <linearGradient id="bg" x1="0" y1="0" x2="1" y2="1"><stop offset="0" stop-color="#081b2a"/><stop offset="1" stop-color="#244657"/></linearGradient>
  <radialGradient id="glow"><stop offset="0" stop-color="#40b9ff" stop-opacity=".34"/><stop offset="1" stop-color="#40b9ff" stop-opacity="0"/></radialGradient>
  <linearGradient id="metal" x1="0" y1="0" x2="1" y2="1"><stop offset="0" stop-color="#f8fbfc"/><stop offset=".32" stop-color="#9eabb1"/><stop offset=".58" stop-color="#e8eef0"/><stop offset="1" stop-color="#64757d"/></linearGradient>
  <filter id="shadow" x="-30%" y="-30%" width="160%" height="160%"><feDropShadow dx="0" dy="16" stdDeviation="14" flood-color="#001017" flood-opacity=".38"/></filter>
  <filter id="soft"><feGaussianBlur stdDeviation="10"/></filter>
</defs>
<rect width="600" height="400" rx="28" fill="url(#bg)"/>
<circle cx="470" cy="110" r="180" fill="url(#glow)"/>
<path d="M-30 330 C130 260 250 400 630 290" fill="none" stroke="#40b9ff" stroke-opacity=".18" stroke-width="16" filter="url(#soft)"/>
<path d="M-20 345 C145 280 285 392 630 315" fill="none" stroke="#fff" stroke-opacity=".34" stroke-width="3"/>
<text x="38" y="58" fill="#fff" font-family="Arial,Helvetica,sans-serif" font-size="34" font-weight="800" letter-spacing="1">VITLO</text>
<text x="40" y="82" fill="#d7e5ea" font-family="Arial,Helvetica,sans-serif" font-size="12" font-weight="700" letter-spacing="2">ENDÜSTRİYEL FAN ÇÖZÜMLERİ</text>
<g transform="translate(150 238) scale(.82)" filter="url(#shadow)"><rect x="-45" y="-55" width="90" height="110" rx="13" fill="url(#metal)"/><ellipse rx="72" ry="59" fill="url(#metal)" stroke="#d7e2e6" stroke-width="3"/><ellipse rx="56" ry="48" fill="#0c2029" stroke="#8fa1a8" stroke-width="4"/><g fill="#263941"><path d="M0-54C25-50 39-35 36-17C33-2 17 6 4 0Z"/><path d="M47-27C56-3 52 17 36 25C22 32 8 23 7 8Z"/><path d="M47 27C30 47 10 54-5 44C-18 35-16 18-3 9Z"/><path d="M0 54C-25 50-39 35-36 17C-33 2-17-6-4 0Z"/><path d="M-47 27C-56 3-52-17-36-25C-22-32-8-23-7-8Z"/><path d="M-47-27C-30-47-10-54 5-44C18-35 16-18 3-9Z"/></g><circle r="10" fill="#aab8bd"/></g>
<g transform="translate(302 230)" filter="url(#shadow)"><rect x="-57" y="-70" width="114" height="140" rx="17" fill="url(#metal)"/><ellipse rx="92" ry="75" fill="url(#metal)" stroke="#d7e2e6" stroke-width="3"/><ellipse rx="72" ry="61" fill="#0c2029" stroke="#8fa1a8" stroke-width="4"/><g transform="scale(1.3)" fill="#263941"><path d="M0-54C25-50 39-35 36-17C33-2 17 6 4 0Z"/><path d="M47-27C56-3 52 17 36 25C22 32 8 23 7 8Z"/><path d="M47 27C30 47 10 54-5 44C-18 35-16 18-3 9Z"/><path d="M0 54C-25 50-39 35-36 17C-33 2-17-6-4 0Z"/><path d="M-47 27C-56 3-52-17-36-25C-22-32-8-23-7-8Z"/><path d="M-47-27C-30-47-10-54 5-44C18-35 16-18 3-9Z"/></g><circle r="12" fill="#aab8bd"/></g>
<g transform="translate(470 246) scale(.76)" filter="url(#shadow)"><rect x="-41" y="-50" width="82" height="100" rx="12" fill="url(#metal)"/><ellipse rx="66" ry="54" fill="url(#metal)" stroke="#d7e2e6" stroke-width="3"/><ellipse rx="51" ry="44" fill="#0c2029" stroke="#8fa1a8" stroke-width="4"/><g fill="#263941"><path d="M0-54C25-50 39-35 36-17C33-2 17 6 4 0Z"/><path d="M47-27C56-3 52 17 36 25C22 32 8 23 7 8Z"/><path d="M47 27C30 47 10 54-5 44C-18 35-16 18-3 9Z"/><path d="M0 54C-25 50-39 35-36 17C-33 2-17-6-4 0Z"/><path d="M-47 27C-56 3-52-17-36-25C-22-32-8-23-7-8Z"/><path d="M-47-27C-30-47-10-54 5-44C18-35 16-18 3-9Z"/></g><circle r="10" fill="#aab8bd"/></g>
<path d="M50 324C180 275 240 360 550 295" fill="none" stroke="#5fc7ff" stroke-width="7" stroke-linecap="round" opacity=".55"/><path d="M75 343C210 300 320 365 525 326" fill="none" stroke="#fff" stroke-width="3" opacity=".55"/>
<rect x="1" y="1" width="598" height="398" rx="27" fill="none" stroke="#fff" stroke-opacity=".12"/>
</svg>