<svg xmlns="http://www.w3.org/2000/svg" width="600" height="400" viewBox="0 0 600 400" role="img" aria-label="VORTICE"><defs><linearGradient id="b" x1="0" y1="0" x2="1" y2="1"><stop stop-color="#eef8f8"/><stop offset="1" stop-color="#78b7c5"/></linearGradient><linearGradient id="w"><stop stop-color="#fff"/><stop offset="1" stop-color="#cedadd"/></linearGradient><filter id="s" x="-30%" y="-30%" width="160%" height="160%"><feDropShadow dy="16" stdDeviation="13" flood-color="#18353f" flood-opacity=".28"/></filter></defs><rect width="600" height="400" rx="28" fill="url(#b)"/><circle cx="500" cy="90" r="180" fill="#fff" opacity=".34"/><path d="M-20 342C150 282 300 388 620 310" fill="none" stroke="#fff" stroke-width="4" opacity=".7"/><text x="38" y="58" font-family="Arial" font-size="34" font-weight="800" fill="#145c88">VORTICE</text><text x="40" y="82" font-family="Arial" font-size="12" font-weight="700" letter-spacing="2" fill="#397582">HAVALANDIRMA TEKNOLOJİLERİ</text><g filter="url(#s)"><g transform="translate(145 235)"><rect x="-68" y="-48" width="136" height="96" rx="46" fill="url(#w)"/><circle r="40" fill="#edf4f5" stroke="#9fb3b9" stroke-width="5"/><g fill="#1d5864"><path d="M0-34C20-31 30-18 24-4L4 0Z"/><path d="M29-17C37 3 28 18 13 20L3 3Z"/><path d="M29 17C13 33-5 34-13 20L-2 3Z"/><path d="M0 34C-20 31-30 18-24 4L-4 0Z"/><path d="M-29 17C-37-3-28-18-13-20L-3-3Z"/><path d="M-29-17C-13-33 5-34 13-20L2-3Z"/></g><circle r="8" fill="#abc0c5"/></g><g transform="translate(305 230)"><rect x="-67" y="-67" width="134" height="134" rx="20" fill="url(#w)"/><circle r="45" fill="#edf4f5" stroke="#9fb3b9" stroke-width="5"/><g fill="#1d5864"><path d="M0-37C21-34 32-20 26-5L4 0Z"/><path d="M32-18C40 4 30 20 14 22L3 4Z"/><path d="M32 18C14 35-5 37-14 22L-3 4Z"/><path d="M0 37C-21 34-32 20-26 5L-4 0Z"/><path d="M-32 18C-40-4-30-20-14-22L-3-4Z"/><path d="M-32-18C-14-35 5-37 14-22L3-4Z"/></g><circle r="9" fill="#abc0c5"/></g><g transform="translate(468 230)"><rect x="-69" y="-63" width="138" height="126" rx="23" fill="url(#w)"/><path d="M-42-33h84M-42-17h84M-42-1h84M-42 15h84M-42 31h84" stroke="#7fa0a8" stroke-width="7" stroke-linecap="round"/></g></g><rect x="1" y="1" width="598" height="398" rx="27" fill="none" stroke="#fff" stroke-opacity=".55"/></svg>